<?xml version="1.0" encoding="UTF-8"?>
<svg width="43px" height="41px" viewBox="0 0 43 41" version="1.1" xmlns="http://www.w3.org/2000/svg" xmlns:xlink="http://www.w3.org/1999/xlink">
    <!-- Generator: Sketch 57.1 (83088) - https://sketch.com -->
    <title>blue face</title>
    <desc>Created with Sketch.</desc>
    <defs>
        <linearGradient x1="50%" y1="0%" x2="50%" y2="100%" id="linearGradient-1">
            <stop stop-color="#94D1E9" offset="0%"></stop>
            <stop stop-color="#5BA4CF" offset="100%"></stop>
        </linearGradient>
        <polygon id="path-2" points="4.50289411 0.199339112 6.67114002e-05 0.199339112 6.67114002e-05 2.6609711 4.50289411 2.6609711"></polygon>
    </defs>
    <g id="MVP-Phase-1" stroke="none" stroke-width="1" fill="none" fill-rule="evenodd">
        <g id="blue-face">
            <g id="blue-face-2">
                <g id="blue-face">
                    <path d="M3.39588442,7.85634956 C3.39500215,6.19846154 4.74631937,4.85519553 6.40333476,4.85607523 L33.3090384,4.8703593 C34.9708897,4.87124156 36.3188041,6.22076488 36.3196838,7.87382859 L36.3339678,34.7153672 C36.3348501,36.3732552 34.9835329,37.7165212 33.3265175,37.7156415 L6.42081379,37.7013575 C4.75896257,37.7004752 3.41104818,36.3509519 3.41016848,34.6978882 L3.39588442,7.85634956 Z" id="Rectangle-Copy-4" fill-opacity="0.5" fill="#125C82" opacity="0.222486413" transform="translate(19.864926, 21.285858) rotate(-12.000000) translate(-19.864926, -21.285858) "></path>
                    <path d="M7.80092393,5.22173438 C7.8003255,3.56247572 9.14283019,2.21786395 10.7971168,2.21845909 L37.7576923,2.22815825 C39.4130424,2.22875377 40.7554556,3.57915974 40.7560523,5.23359011 L40.7657409,32.0973196 C40.7663393,33.7565783 39.4238346,35.1011901 37.769548,35.1005949 L10.8089725,35.0908957 C9.15362246,35.0903002 7.81120925,33.7398943 7.81061256,32.0854639 L7.80092393,5.22173438 Z" id="Rectangle-Copy-2" fill="url(#linearGradient-1)" transform="translate(24.283332, 18.659527) rotate(-8.000000) translate(-24.283332, -18.659527) "></path>
                    <g id="Page-1" transform="translate(25.173136, 19.968337) rotate(-12.000000) translate(-25.173136, -19.968337) translate(14.173136, 14.968337)">
                        <g id="Group-3" transform="translate(0.000000, 0.460922)">
                            <mask id="mask-3" fill="white">
                                <use xlink:href="#path-2"></use>
                            </mask>
                            <g id="Clip-2"></g>
                            <path d="M0.0605538487,1.92613067 C0.0605538487,1.92613067 0.866614917,0.118217334 2.46285408,0.202045371 C4.05909324,0.285873409 4.49388972,2.15847295 4.49388972,2.15847295 C4.49388972,2.15847295 4.55742163,2.42579858 4.34697219,2.56837225 C4.12130156,2.72150693 3.84732021,2.70104497 3.5137777,2.38289446 C3.14251312,2.02778042 2.55616656,1.89906808 2.26100791,1.88388662 C1.96518747,1.8680451 1.38479703,1.91622972 0.923528917,2.42447845 C0.461599011,2.93206712 -0.204824221,2.38685484 0.0605538487,1.92613067" id="Fill-1" fill="#2C6190" mask="url(#mask-3)"></path>
                        </g>
                        <path d="M16.8941929,3.26823735 C16.8941929,3.26823735 17.7009158,1.46098407 19.2964931,1.54415205 C20.8927323,1.62798009 21.3275288,3.50123969 21.3275288,3.50123969 C21.3275288,3.50123969 21.3910607,3.76790526 21.181273,3.91113899 C20.9549406,4.06427367 20.6809593,4.04381171 20.3474168,3.72500114 C19.9761522,3.37054716 19.3898056,3.24183482 19.094647,3.22665336 C18.7988265,3.21081184 18.2184361,3.25899646 17.757168,3.76724519 C17.2952381,4.27483386 16.6288148,3.72896152 16.8941929,3.26823735" id="Fill-4" fill="#2C6190"></path>
                        <path d="M10.8452936,6.97396464 C11.6672376,7.01686876 12.6546293,6.7158799 13.2012685,6.39244889 C13.7479076,6.06901788 15.027149,6.3706668 14.385212,7.39442495 C13.7419515,8.41752305 12.6453643,9.1231307 10.9425768,9.03402215 C9.24045114,8.94491361 8.02474163,7.99508254 7.67333077,7.40630609 C7.32125812,6.81884977 7.6779633,5.63403617 8.85065642,6.28221832 C10.0233495,6.93106053 10.8452936,6.97396464 10.8452936,6.97396464" id="Fill-6" fill="#2C6190"></path>
                    </g>
                </g>
            </g>
        </g>
    </g>
</svg>